<svg width="197" height="158" viewBox="0 0 197 158" fill="none" xmlns="http://www.w3.org/2000/svg">
<g clip-path="url(#clip0)">
<path d="M153.203 157.307C146.452 153.842 140.047 147.778 140.047 140.156C140.22 128.548 155.626 120.752 153.895 109.318C152.857 102.041 145.067 97.5371 137.796 96.1511C130.525 94.7652 122.909 95.2849 115.984 92.513C106.117 88.5283 99.7117 77.4406 100.923 66.8726C102.308 56.6511 113.387 47.1226 122.735 51.627C125.505 53.013 127.756 55.2652 129.833 57.6906C132.949 61.3288 136.065 65.4867 136.411 70.3375C137.104 80.0393 127.236 86.7959 118.754 91.6468C110.271 96.4976 100.577 104.12 102.655 113.649C104.559 122.831 116.677 126.469 125.159 122.658C133.641 118.846 138.662 110.011 142.124 101.349C143.509 97.8836 144.894 94.0722 148.183 91.9932C151.818 89.741 156.319 90.6073 160.647 90.9538C172.245 91.9932 184.709 87.6621 191.287 78.1336C197.865 68.6051 196.307 53.5327 186.44 47.2959C179.516 42.9647 170.168 43.6577 163.243 48.1621C156.319 52.4932 151.818 60.116 149.568 67.9121C146.971 77.2674 147.663 88.0086 153.549 95.4582C159.608 103.081 171.726 105.853 179.17 99.7893C188.344 92.513 185.575 76.5744 176.573 69.1248C167.398 61.6753 154.761 60.809 142.989 61.502C135.026 62.0217 126.717 63.4077 120.658 68.6051C114.772 73.9757 113.041 84.5437 119.1 89.5678C125.332 94.9384 135.719 90.9538 140.393 84.1972C145.067 77.4406 145.932 68.7783 147.663 60.809C149.394 52.8397 152.857 44.1774 160.3 40.7125C163.936 38.9801 168.264 38.6336 171.899 36.7279C182.459 31.3573 182.805 14.3792 173.63 6.92963C164.628 -0.173437 150.087 1.73226 141.258 9.70156C136.065 14.3792 132.603 20.616 128.448 26.3331C116.85 42.0985 99.5386 53.706 80.4964 58.0371C78.4191 58.5568 76.1686 58.9033 74.0913 58.5568C71.8409 58.2103 69.7635 56.8244 68.0324 55.0919C61.9736 49.2016 60.2425 39.3266 64.224 31.7038C68.2055 24.2542 77.3804 19.9231 85.6897 21.6555C93.6528 23.388 99.7117 29.7981 105.944 34.9954C113.214 41.059 122.043 46.0831 131.391 45.5634C140.739 44.8704 150.087 36.3814 148.529 27.0261C146.971 17.3244 134.853 12.4735 125.332 14.8989C115.811 17.3244 108.713 25.1204 102.481 32.57C97.6344 38.4603 92.0948 45.0437 84.478 45.5634C75.8224 46.0831 68.7249 37.5941 68.2056 29.1051C67.6862 20.616 72.3602 12.3002 78.4191 6.23665C81.7082 2.94498 85.8628 -0.173437 90.3637 0.519545C96.7688 1.38577 99.8848 8.66209 101.27 15.0722C104.559 32.0503 102.481 51.2805 90.3637 63.4077C75.4762 78.4801 47.2592 76.9209 34.1027 60.2893C30.6405 55.7849 28.0439 50.241 28.5632 44.5239C28.9094 40.366 30.9867 36.3814 33.4103 33.0897C38.2574 26.6796 45.8743 21.6555 53.8374 21.6555C61.9736 21.6555 70.1098 27.7191 70.8022 35.8617C71.4947 43.4845 65.6089 50.4143 58.5113 53.706C51.5869 56.9976 43.6238 57.3441 36.007 58.0371C28.3901 58.9033 20.427 60.2893 14.3681 64.9669C4.67391 72.5897 3.80836 89.741 14.195 96.3244C22.5043 101.522 34.1027 98.2301 41.0272 91.127C47.7785 84.0239 50.8945 74.1489 53.1449 64.6204C54.7029 58.0371 55.9147 50.5875 52.4525 44.6972C49.6827 40.1928 44.6625 37.4209 39.2961 36.3814C29.0825 34.4757 18.3497 38.8068 11.2521 46.4296C4.15458 54.0524 0.865479 64.6204 0.865479 75.0152C0.865479 81.4253 2.25036 87.8353 5.88569 93.0327C12.8101 102.734 26.659 105.506 38.2574 102.388C47.4323 99.7893 55.5685 94.2454 64.9164 91.4735C74.0913 88.7016 85.8628 89.741 90.8831 97.8836C95.7302 105.68 91.5755 117.114 83.2662 120.925C74.9569 124.737 64.3971 121.445 58.6845 114.169C52.9718 106.892 51.9331 96.6709 54.7029 88.0086C57.6458 78.4801 65.0896 70.3375 74.6106 67.3924C88.1133 63.2345 104.213 71.377 108.887 84.7169C113.387 98.0568 105.771 114.515 92.4411 119.366C81.7082 123.351 69.4173 120.406 58.5113 123.87C53.4911 125.43 48.9903 128.202 45.528 132.013C43.1045 134.612 41.2003 137.557 40.8541 141.022C40.3347 146.912 45.528 152.283 51.4138 153.495C57.2996 154.708 63.3584 152.283 68.0324 148.645C74.7838 143.62 79.6309 135.478 79.2846 126.989C79.1115 118.5 73.0526 110.184 64.9164 108.452C56.6071 106.719 47.2592 113.129 46.9129 121.618C46.5667 129.414 54.0105 136.171 61.8005 137.21C69.5904 138.25 77.3804 134.612 83.4393 129.588C87.9402 125.776 91.9217 121.099 97.2882 118.5C106.636 114.169 119.1 118.846 123.428 128.202C127.756 137.557 123.082 150.031 113.734 154.362C104.213 159.386 91.7486 154.881 87.5939 145.353C85.3435 140.329 85.3435 134.612 86.036 129.068C87.0746 121.618 89.4982 113.995 94.3453 108.278C99.3655 102.561 107.155 99.0963 114.599 100.656C122.043 102.215 128.102 109.664 126.89 117.114C126.198 121.791 122.909 125.949 122.909 130.627C122.909 136.691 128.448 141.541 134.334 143.274C147.836 147.259 163.936 136.864 166.013 122.658C168.09 108.452 155.973 93.8989 141.605 93.206C136.238 92.8595 129.833 95.2849 128.794 100.656C127.929 105.16 131.737 109.318 135.892 111.397C146.105 116.421 159.781 112.09 165.148 102.215C170.687 91.9932 167.398 78.9998 162.032 68.6051C156.665 58.2103 149.221 48.6818 146.105 37.2476C142.989 25.8134 146.798 11.6073 157.531 7.10288C168.437 2.59849 180.728 10.2213 187.652 19.7498C194.23 28.7586 198.039 40.5393 194.923 51.4538C190.595 66.6994 174.842 75.5349 165.667 88.5283C164.282 90.6073 162.897 92.8595 162.724 95.4582C162.378 101.522 168.956 105.506 172.591 110.357C180.035 120.232 175.707 135.478 165.84 142.927C156.146 150.377 142.816 151.763 130.525 150.55C115.984 148.991 101.27 144.313 89.1519 135.478C77.0342 126.816 67.6862 113.822 64.7433 99.0963C62.4929 87.6621 63.3584 74.6687 55.3954 66.1796C48.2978 58.7301 35.4876 58.3836 27.0052 64.4472C18.5228 70.5108 14.7143 81.5985 16.0992 91.82C17.8303 104.64 30.6405 116.941 42.9314 112.956C52.9718 109.664 57.2996 98.2301 59.0307 87.8353C60.5887 77.4406 60.9349 66.1796 67.34 57.8639C70.6291 53.706 75.4762 50.5875 80.6695 50.7608C87.0746 50.934 92.6142 56.4779 93.999 62.888C95.3839 69.1248 92.7873 75.8814 88.4595 80.7323C84.8242 84.8902 79.804 88.0086 77.8998 93.206C75.9955 98.4033 80.8426 105.853 85.8628 103.254" stroke="white" stroke-miterlimit="10"/>
</g>
<defs>
<clipPath id="clip0">
<rect width="197" height="158" fill="white"/>
</clipPath>
</defs>
</svg>
