<svg width="186" height="39" viewBox="0 0 186 39" fill="none" xmlns="http://www.w3.org/2000/svg">
<path fill-rule="evenodd" clip-rule="evenodd" d="M19.5 0H39V19.5C39 30.2696 30.2696 39 19.5 39C8.73045 39 0 30.2696 0 19.5C0 8.73045 8.73045 0 19.5 0ZM19.5 9.88219C14.1882 9.88219 9.88219 14.1882 9.88219 19.5C9.88219 24.8118 14.1882 29.1178 19.5 29.1178C24.8118 29.1178 29.1178 24.8118 29.1178 19.5L19.5 19.5L19.5 9.88219Z" fill="white"/>
<path d="M66.3847 17.7261L66.5051 14.5571L74.3942 27.3001H69.8479L64.1918 17.7395L66.0505 17.9802L62.8146 22.3259L63.1756 19.7185V27.3001H59.0171V7.57721H63.1756V17.8197L62.4001 17.3918L69.6073 7.57721H73.9931L66.3847 17.7261Z" fill="white"/>
<path d="M86.66 27.3001V21.2695C86.66 20.9308 86.66 20.6233 86.66 20.3469C86.66 20.0706 86.66 19.821 86.66 19.5981C86.66 19.0098 86.5842 18.4749 86.4327 17.9935C86.2812 17.5033 86.0093 17.111 85.617 16.8169C85.2248 16.5227 84.6588 16.3756 83.9189 16.3756C83.277 16.3756 82.7199 16.5227 82.2474 16.8169C81.7839 17.111 81.4273 17.5211 81.1777 18.047C80.9281 18.573 80.8033 19.1791 80.8033 19.8655L79.6534 19.0365C79.6534 17.8063 79.9208 16.7277 80.4557 15.8006C80.9905 14.8735 81.7126 14.147 82.6218 13.6211C83.54 13.0951 84.5562 12.8322 85.6705 12.8322C86.8383 12.8322 87.7966 13.0684 88.5454 13.5409C89.3031 14.0044 89.8647 14.6551 90.2302 15.4931C90.6046 16.3221 90.7918 17.2938 90.7918 18.4081C90.7918 18.8627 90.7918 19.3708 90.7918 19.9324C90.7918 20.494 90.7918 21.069 90.7918 21.6573V27.3001H86.66ZM76.6582 27.3001V13.0996H80.8033V27.3001H76.6582Z" fill="white"/>
<path d="M101.008 27.6076C99.4751 27.6076 98.1246 27.2911 96.9568 26.6582C95.7891 26.0253 94.8754 25.1562 94.2157 24.0508C93.565 22.9365 93.2396 21.6529 93.2396 20.1998C93.2396 18.7557 93.565 17.481 94.2157 16.3756C94.8754 15.2613 95.7891 14.3966 96.9568 13.7815C98.1246 13.1575 99.4751 12.8455 101.008 12.8455C102.542 12.8455 103.892 13.1575 105.06 13.7815C106.228 14.3966 107.137 15.2613 107.788 16.3756C108.447 17.481 108.777 18.7557 108.777 20.1998C108.777 21.6529 108.447 22.9365 107.788 24.0508C107.137 25.1562 106.228 26.0253 105.06 26.6582C103.892 27.2911 102.542 27.6076 101.008 27.6076ZM101.008 24.3182C101.73 24.3182 102.359 24.1489 102.894 23.8101C103.429 23.4714 103.843 22.9945 104.137 22.3794C104.431 21.7554 104.579 21.0289 104.579 20.1998C104.579 19.3708 104.431 18.6532 104.137 18.047C103.843 17.4319 103.429 16.9595 102.894 16.6297C102.359 16.2998 101.73 16.1349 101.008 16.1349C100.295 16.1349 99.6668 16.2998 99.123 16.6297C98.5882 16.9595 98.1736 17.4319 97.8795 18.047C97.5853 18.6532 97.4382 19.3708 97.4382 20.1998C97.4382 21.0289 97.5853 21.7554 97.8795 22.3794C98.1736 22.9945 98.5882 23.4714 99.123 23.8101C99.6668 24.1489 100.295 24.3182 101.008 24.3182Z" fill="white"/>
<path d="M121.368 27.3001V21.2695C121.368 20.9308 121.368 20.6233 121.368 20.3469C121.368 20.0706 121.368 19.821 121.368 19.5981C121.368 19.0098 121.292 18.4749 121.141 17.9935C120.989 17.5033 120.718 17.111 120.325 16.8169C119.933 16.5227 119.367 16.3756 118.627 16.3756C117.985 16.3756 117.428 16.5227 116.956 16.8169C116.492 17.111 116.136 17.5211 115.886 18.047C115.636 18.573 115.512 19.1791 115.512 19.8655L114.362 19.0365C114.362 17.8063 114.629 16.7277 115.164 15.8006C115.699 14.8735 116.421 14.147 117.33 13.6211C118.248 13.0951 119.264 12.8322 120.379 12.8322C121.547 12.8322 122.505 13.0684 123.254 13.5409C124.011 14.0044 124.573 14.6551 124.938 15.4931C125.313 16.3221 125.5 17.2938 125.5 18.4081C125.5 18.8627 125.5 19.3708 125.5 19.9324C125.5 20.494 125.5 21.069 125.5 21.6573V27.3001H121.368ZM111.366 27.3001V13.0996H115.512V27.3001H111.366Z" fill="white"/>
<path d="M138.404 25.6153C139.278 25.7044 140.04 25.8738 140.691 26.1234C141.35 26.3641 141.863 26.7251 142.229 27.2065C142.594 27.6789 142.777 28.3118 142.777 29.1052C142.777 30.0234 142.474 30.8034 141.868 31.4452C141.27 32.0959 140.392 32.5907 139.233 32.9294C138.074 33.2682 136.67 33.4375 135.021 33.4375C132.588 33.4375 130.702 33.0854 129.365 32.3812C128.037 31.6859 127.373 30.7543 127.373 29.5866C127.373 29.2567 127.409 28.9581 127.48 28.6907C127.56 28.4322 127.658 28.2093 127.774 28.0221L131.545 28.5703C131.5 28.6327 131.451 28.7263 131.398 28.8511C131.353 28.9849 131.331 29.1498 131.331 29.3459C131.331 29.8184 131.683 30.1705 132.387 30.4022C133.1 30.634 134.018 30.7499 135.142 30.7499C135.935 30.7499 136.613 30.692 137.174 30.5761C137.745 30.4691 138.177 30.3086 138.471 30.0947C138.774 29.8807 138.926 29.6356 138.926 29.3593C138.926 28.9581 138.73 28.6951 138.337 28.5703C137.954 28.4455 137.508 28.3564 137 28.3029L131.625 27.7547C130.636 27.6566 129.815 27.3714 129.165 26.8989C128.514 26.4265 128.189 25.7891 128.189 24.9868C128.189 24.4876 128.327 24.033 128.603 23.6229C128.879 23.2039 129.196 22.8607 129.552 22.5933C129.909 22.317 130.208 22.1431 130.448 22.0718L132.561 23.1415C132.392 23.1683 132.191 23.2753 131.959 23.4625C131.736 23.6497 131.625 23.8681 131.625 24.1177C131.625 24.3673 131.75 24.5812 131.999 24.7595C132.258 24.9378 132.726 25.0581 133.403 25.1205L138.404 25.6153ZM139.808 13.0996H143.459L141.974 18.5551C141.698 19.5892 141.288 20.5118 140.744 21.323C140.201 22.1253 139.474 22.7582 138.565 23.2218C137.664 23.6853 136.528 23.9171 135.155 23.9171C133.711 23.9171 132.458 23.6942 131.398 23.2485C130.346 22.8028 129.535 22.1743 128.964 21.3631C128.394 20.543 128.108 19.5758 128.108 18.4615C128.108 17.3473 128.398 16.3667 128.977 15.5198C129.566 14.673 130.364 14.0133 131.371 13.5409C132.387 13.0684 133.537 12.8322 134.821 12.8322C135.792 12.8322 136.679 12.9926 137.482 13.3135C138.293 13.6255 138.944 14.0401 139.434 14.5571C139.933 15.0741 140.192 15.6446 140.209 16.2686L139.447 16.4692L139.808 13.0996ZM135.128 20.8818C135.717 20.8818 136.234 20.7882 136.679 20.601C137.125 20.4049 137.473 20.1241 137.722 19.7586C137.972 19.3842 138.097 18.934 138.097 18.4081C138.097 17.891 137.972 17.4498 137.722 17.0843C137.473 16.7188 137.125 16.438 136.679 16.2419C136.234 16.0458 135.717 15.9477 135.128 15.9477C134.567 15.9477 134.059 16.0502 133.604 16.2553C133.158 16.4514 132.806 16.7366 132.548 17.111C132.289 17.4765 132.16 17.9222 132.16 18.4482C132.16 18.9652 132.285 19.4065 132.534 19.7719C132.784 20.1285 133.132 20.4049 133.577 20.601C134.023 20.7882 134.54 20.8818 135.128 20.8818Z" fill="white"/>
<path d="M157.923 27.621C156.309 27.621 155.017 27.3402 154.045 26.7786C153.082 26.2081 152.383 25.4147 151.946 24.3985C151.518 23.3822 151.304 22.21 151.304 20.8818C151.304 20.7213 151.304 20.5653 151.304 20.4138C151.304 20.2622 151.304 20.1107 151.304 19.9591H155.422C155.422 20.0305 155.422 20.1151 155.422 20.2132C155.422 20.3113 155.422 20.4093 155.422 20.5074C155.422 21.1581 155.489 21.7732 155.623 22.3526C155.766 22.9321 156.02 23.4001 156.385 23.7566C156.751 24.1132 157.263 24.2915 157.923 24.2915C158.6 24.2915 159.113 24.1087 159.461 23.7433C159.808 23.3778 160.044 22.8875 160.169 22.2724C160.294 21.6573 160.356 20.9754 160.356 20.2266V7.57721H164.502V20.8149C164.502 21.742 164.395 22.6156 164.181 23.4357C163.976 24.2558 163.624 24.9824 163.124 25.6153C162.634 26.2393 161.965 26.7296 161.119 27.0861C160.272 27.4427 159.206 27.621 157.923 27.621Z" fill="white"/>
<path d="M167.591 27.3001V13.0996H171.696V27.3001H167.591ZM169.636 10.7863C168.995 10.7863 168.433 10.617 167.952 10.2782C167.479 9.93949 167.243 9.46258 167.243 8.84749C167.243 8.22349 167.479 7.74212 167.952 7.40338C168.433 7.06464 168.995 6.89526 169.636 6.89526C170.287 6.89526 170.849 7.06464 171.321 7.40338C171.803 7.74212 172.043 8.22349 172.043 8.84749C172.043 9.47149 171.803 9.95286 171.321 10.2916C170.849 10.6214 170.287 10.7863 169.636 10.7863Z" fill="white"/>
<path d="M181.73 27.5942C181.186 27.5942 180.625 27.5452 180.045 27.4471C179.475 27.358 178.94 27.1753 178.441 26.8989C177.95 26.6137 177.554 26.1991 177.251 25.6554C176.948 25.1116 176.796 24.394 176.796 23.5026C176.796 23.3065 176.796 23.1059 176.796 22.9009C176.796 22.6958 176.796 22.4908 176.796 22.2858V16.3087H173.52V13.0996H174.443C174.977 13.0996 175.401 13.0773 175.713 13.0327C176.034 12.9882 176.27 12.8767 176.422 12.6985C176.582 12.5113 176.685 12.2215 176.729 11.8293C176.774 11.4371 176.796 10.8978 176.796 10.2114V8.41961H180.954V13.0996H185.086V16.3087H180.954V21.4166C180.954 21.5771 180.954 21.7331 180.954 21.8846C180.954 22.0362 180.954 22.1833 180.954 22.3259C180.954 22.941 181.026 23.4402 181.168 23.8235C181.32 24.2068 181.69 24.3985 182.278 24.3985C182.572 24.3985 182.849 24.3717 183.107 24.3182C183.375 24.2647 183.575 24.2113 183.709 24.1578V27.2733C183.522 27.3535 183.259 27.4249 182.92 27.4873C182.581 27.5586 182.185 27.5942 181.73 27.5942Z" fill="white"/>
</svg>
